#!OML:ASF \\sashay\E\Suitcase\Project 1\Capture day 1\Session 1\Male1.ASF
:FULLY-SPECIFIED
:DEGREES
150
root 1.36498 17.5944 -36.2823 7.17407 -4.3724 -3.35264
lowerback 4.9432 -1.70008 2.92281
upperback 3.59145 -2.19351 6.47246
thorax 1.08922 -1.12979 5.15367
lowerneck -8.27746 -10.7231 -8.64337
upperneck 33.0076 -16.5961 7.4065
head 14.028 -7.46298 1.90228
rclavicle 2.42517e-014 -4.77083e-014
rhumerus -21.7899 -4.82848 -70.8099
rradius 34.5127
rwrist -14.5676
rhand -17.2119 17.8457
rfingers 7.12502
rthumb 9.0309 -11.941
lclavicle 2.42517e-014 -4.77083e-014
lhumerus -34.0989 4.89225 89.0618
lradius 41.0306
lwrist 1.20324
lhand -4.47521 43.0776
lfingers 7.12502
lthumb 21.2976 71.9274
rfemur -14.5794 1.6215 19.307
rtibia 26.4049
rfoot -16.1233 -5.58379
rtoes 4.88148
lfemur -11.6877 -0.602793 -15.5316
ltibia 25.425
lfoot -19.5105 10.1963
ltoes -4.11712
151
root 1.36604 17.6019 -36.3237 7.3779 -4.42871 -3.24354
lowerback 5.39776 -1.69047 3.22704
upperback 4.07567 -2.17239 6.55418
thorax 1.33096 -1.11752 5.07725
lowerneck -9.19208 -11.0114 -8.09145
upperneck 33.1345 -16.8953 6.84949
head 14.1894 -7.54536 1.48894
rclavicle -7.95139e-016 -1.27222e-014
rhumerus -20.6976 -5.37505 -70.5077
rradius 34.3055
rwrist -14.3528
rhand -17.9653 17.8367
rfingers 7.12502
rthumb 8.30378 -11.9801
lclavicle -7.95139e-016 -1.27222e-014
lhumerus -33.3042 4.53787 89.3013
lradius 41.2942
lwrist 1.39633
lhand -4.116 43.6845
lfingers 7.12502
lthumb 21.6426 72.4949
rfemur -15.035 1.48103 19.1989
rtibia 26.5688
rfoot -15.9962 -5.45157
rtoes 4.74852
lfemur -12.0939 -0.556631 -15.6285
ltibia 25.4309
lfoot -19.2168 10.1286
ltoes -4.8247
152
root 1.37651 17.6063 -36.3616 7.43947 -4.49324 -3.14692
lowerback 5.91919 -1.86139 3.32254
upperback 4.04501 -2.35564 6.84079
thorax 1.03177 -1.21267 5.35524
lowerneck -8.08831 -10.8763 -8.59896
upperneck 32.89 -16.6399 6.91536
head 13.8759 -7.53763 1.71063
rclavicle 3.85642e-014 -2.22639e-014
rhumerus -20.6748 -5.32719 -69.9003
rradius 34.233
rwrist -13.7826
rhand -18.0372 18.4429
rfingers 7.12502
rthumb 8.2344 -11.3767
lclavicle 3.85642e-014 -2.22639e-014
lhumerus -34.1498 4.63883 89.6315
lradius 41.8746
lwrist 1.1207
lhand -4.22991 43.7416
lfingers 7.12502
lthumb 21.5332 72.5646
rfemur -15.4308 1.34209 19.0592
rtibia 26.6831
rfoot -15.7599 -5.30023
rtoes 4.17606
lfemur -12.3147 -0.614655 -15.7709
ltibia 25.4524
lfoot -19.1177 10.2207
ltoes -4.56403
153
root 1.38226 17.6046 -36.3983 7.50077 -4.50987 -3.03513
lowerback 6.39448 -1.73052 3.55567
upperback 4.56799 -2.1753 7.00781
thorax 1.30045 -1.12334 5.40331
lowerneck -8.72433 -11.2664 -8.28844
upperneck 32.8734 -17.1443 6.68625
head 13.9974 -7.71054 1.44535
rclavicle -4.77083e-015 -2.54444e-014
rhumerus -19.8297 -6.12733 -69.3376
rradius 34.135
rwrist -13.4345
rhand -18.1639 18.708
rfingers 7.12502
rthumb 8.11218 -11.1163
lclavicle -4.77083e-015 -2.54444e-014
lhumerus -33.5206 3.79416 90.1594
lradius 42.3057
lwrist 1.32909
lhand -4.19799 42.9431
lfingers 7.12502
lthumb 21.5638 71.7626
rfemur -15.6371 1.18007 18.9235
rtibia 26.8293
rfoot -15.8163 -5.09119
rtoes 4.74394
lfemur -12.5594 -0.555734 -15.8997
ltibia 25.4695
lfoot -18.9328 9.9956
ltoes -4.93542
154
root 1.3812 17.6116 -36.4495 7.78948 -4.39464 -2.92852
lowerback 6.96088 -2.04908 3.7711
upperback 4.78061 -2.55975 7.22799
thorax 1.23918 -1.31741 5.55705
lowerneck -8.80322 -11.1508 -8.56588
upperneck 32.5546 -16.8895 6.77141
head 13.8861 -7.62728 1.5627
rclavicle 1.90833e-014 -1.27222e-014
rhumerus -19.2523 -4.37307 -69.2778
rradius 34.8247
rwrist -14.6159
rhand -18.6759 18.1332
rfingers 7.12502
rthumb 7.61794 -11.7096
lclavicle 1.90833e-014 -1.27222e-014
lhumerus -33.4852 4.05885 90.2547
lradius 42.8105
lwrist 1.38002
lhand -4.55394 43.1122
lfingers 7.12502
lthumb 21.2219 71.9705
rfemur -16.2416 1.25823 18.8004
rtibia 26.9174
rfoot -15.6936 -5.25682
rtoes 4.67821
lfemur -13.1798 -0.309861 -15.9776
ltibia 25.5832
lfoot -18.5489 9.80603
ltoes -6.56365
155
root 1.38796 17.6181 -36.4888 7.84501 -4.44381 -2.87013
lowerback 7.65155 -1.98268 4.28315
upperback 5.20901 -2.41803 7.36058
thorax 1.2836 -1.23838 5.4238
lowerneck -9.73917 -11.4088 -8.29182
upperneck 32.6917 -17.1925 6.52561
head 14.1212 -7.7052 1.3097
rclavicle -5.56597e-015 -4.92986e-014
rhumerus -18.4006 -5.15238 -68.7478
rradius 34.6355
rwrist -14.2897
rhand -19.0097 17.8363
rfingers 7.12502
rthumb 7.29583 -12.0179
lclavicle -5.56597e-015 -4.92986e-014
lhumerus -32.9298 3.13899 90.7426
lradius 43.1846
lwrist 1.46484
lhand -4.27374 44.0194
lfingers 7.12502
lthumb 21.4911 72.8472
rfemur -16.5321 1.06419 18.718
rtibia 27.0373
rfoot -15.4547 -4.9571
rtoes 4.95822
lfemur -13.4529 -0.169012 -16.0601
ltibia 25.6608
lfoot -18.3504 9.7291
ltoes -7.47068
